<svg xmlns="http://www.w3.org/2000/svg" xmlns:xlink="http://www.w3.org/1999/xlink" width="576" zoomAndPan="magnify" viewBox="0 0 432 383.999986" height="512" preserveAspectRatio="xMidYMid meet" version="1.0"><path fill="#216dde" d="M 216 0 C 316.800781 0 384 26.398438 384 60 L 384 96 C 397.273438 96 408 106.726562 408 120 L 408 168 C 408 181.273438 397.273438 192 384 192 L 384 312 C 384 325.273438 373.273438 336 360 336 L 360 360 C 360 373.273438 349.273438 384 336 384 L 312 384 C 298.726562 384 288 373.273438 288 360 L 288 336 L 144 336 L 144 360 C 144 373.273438 133.273438 384 120 384 L 96 384 C 82.726562 384 72 373.273438 72 360 L 72 336 C 58.726562 336 48 325.273438 48 312 L 48 192 C 34.726562 192 24 181.273438 24 168 L 24 120 C 24 106.726562 34.726562 96 48 96 L 48 60 C 48 26.398438 115.199219 0 216 0 Z M 96 120 L 96 192 C 96 205.273438 106.726562 216 120 216 L 204 216 L 204 96 L 120 96 C 106.726562 96 96 106.726562 96 120 Z M 228 216 L 312 216 C 325.273438 216 336 205.273438 336 192 L 336 120 C 336 106.726562 325.273438 96 312 96 L 228 96 Z M 108 300 C 108.785156 300 109.570312 299.960938 110.351562 299.882812 C 111.132812 299.808594 111.910156 299.691406 112.683594 299.539062 C 113.453125 299.386719 114.214844 299.195312 114.96875 298.964844 C 115.71875 298.738281 116.457031 298.472656 117.183594 298.171875 C 117.910156 297.871094 118.621094 297.535156 119.3125 297.167969 C 120.007812 296.796875 120.679688 296.390625 121.332031 295.957031 C 121.988281 295.519531 122.617188 295.050781 123.226562 294.550781 C 123.832031 294.054688 124.414062 293.527344 124.96875 292.96875 C 125.527344 292.414062 126.054688 291.832031 126.550781 291.226562 C 127.050781 290.617188 127.519531 289.988281 127.957031 289.332031 C 128.390625 288.679688 128.796875 288.007812 129.167969 287.3125 C 129.535156 286.621094 129.871094 285.910156 130.171875 285.183594 C 130.472656 284.457031 130.738281 283.71875 130.964844 282.964844 C 131.195312 282.214844 131.386719 281.453125 131.539062 280.683594 C 131.691406 279.910156 131.808594 279.132812 131.882812 278.351562 C 131.960938 277.570312 132 276.785156 132 276 C 132 275.214844 131.960938 274.429688 131.882812 273.648438 C 131.808594 272.867188 131.691406 272.089844 131.539062 271.316406 C 131.386719 270.546875 131.195312 269.785156 130.964844 269.03125 C 130.738281 268.28125 130.472656 267.542969 130.171875 266.816406 C 129.871094 266.089844 129.535156 265.378906 129.167969 264.6875 C 128.796875 263.992188 128.390625 263.320312 127.957031 262.667969 C 127.519531 262.011719 127.050781 261.382812 126.550781 260.773438 C 126.054688 260.167969 125.527344 259.585938 124.96875 259.03125 C 124.414062 258.472656 123.832031 257.945312 123.226562 257.449219 C 122.617188 256.949219 121.988281 256.480469 121.332031 256.042969 C 120.679688 255.609375 120.007812 255.203125 119.3125 254.832031 C 118.621094 254.464844 117.910156 254.128906 117.183594 253.828125 C 116.457031 253.527344 115.71875 253.261719 114.96875 253.035156 C 114.214844 252.804688 113.453125 252.613281 112.683594 252.460938 C 111.910156 252.308594 111.132812 252.191406 110.351562 252.117188 C 109.570312 252.039062 108.785156 252 108 252 C 107.214844 252 106.429688 252.039062 105.648438 252.117188 C 104.867188 252.191406 104.089844 252.308594 103.316406 252.460938 C 102.546875 252.613281 101.785156 252.804688 101.03125 253.035156 C 100.28125 253.261719 99.542969 253.527344 98.816406 253.828125 C 98.089844 254.128906 97.378906 254.464844 96.6875 254.832031 C 95.992188 255.203125 95.320312 255.609375 94.667969 256.042969 C 94.011719 256.480469 93.382812 256.949219 92.773438 257.449219 C 92.167969 257.945312 91.585938 258.472656 91.03125 259.03125 C 90.472656 259.585938 89.945312 260.167969 89.449219 260.773438 C 88.949219 261.382812 88.480469 262.011719 88.042969 262.667969 C 87.609375 263.320312 87.203125 263.992188 86.832031 264.6875 C 86.464844 265.378906 86.128906 266.089844 85.828125 266.816406 C 85.527344 267.542969 85.261719 268.28125 85.035156 269.03125 C 84.804688 269.785156 84.613281 270.546875 84.460938 271.316406 C 84.308594 272.089844 84.191406 272.867188 84.117188 273.648438 C 84.039062 274.429688 84 275.214844 84 276 C 84 276.785156 84.039062 277.570312 84.117188 278.351562 C 84.191406 279.132812 84.308594 279.910156 84.460938 280.683594 C 84.613281 281.453125 84.804688 282.214844 85.035156 282.964844 C 85.261719 283.71875 85.527344 284.457031 85.828125 285.183594 C 86.128906 285.910156 86.464844 286.621094 86.832031 287.3125 C 87.203125 288.007812 87.609375 288.679688 88.042969 289.332031 C 88.480469 289.988281 88.949219 290.617188 89.449219 291.226562 C 89.945312 291.832031 90.472656 292.414062 91.03125 292.96875 C 91.585938 293.527344 92.167969 294.054688 92.773438 294.550781 C 93.382812 295.050781 94.011719 295.519531 94.667969 295.957031 C 95.320312 296.390625 95.992188 296.796875 96.6875 297.167969 C 97.378906 297.535156 98.089844 297.871094 98.816406 298.171875 C 99.542969 298.472656 100.28125 298.738281 101.03125 298.964844 C 101.785156 299.195312 102.546875 299.386719 103.316406 299.539062 C 104.089844 299.691406 104.867188 299.808594 105.648438 299.882812 C 106.429688 299.960938 107.214844 300 108 300 Z M 324 300 C 324.785156 300 325.570312 299.960938 326.351562 299.882812 C 327.132812 299.808594 327.910156 299.691406 328.683594 299.539062 C 329.453125 299.386719 330.214844 299.195312 330.96875 298.964844 C 331.71875 298.738281 332.457031 298.472656 333.183594 298.171875 C 333.910156 297.871094 334.621094 297.535156 335.3125 297.167969 C 336.007812 296.796875 336.679688 296.390625 337.332031 295.957031 C 337.988281 295.519531 338.617188 295.050781 339.226562 294.550781 C 339.832031 294.054688 340.414062 293.527344 340.96875 292.96875 C 341.527344 292.414062 342.054688 291.832031 342.550781 291.226562 C 343.050781 290.617188 343.519531 289.988281 343.957031 289.332031 C 344.390625 288.679688 344.796875 288.007812 345.167969 287.3125 C 345.535156 286.621094 345.871094 285.910156 346.171875 285.183594 C 346.472656 284.457031 346.738281 283.71875 346.964844 282.964844 C 347.195312 282.214844 347.386719 281.453125 347.539062 280.683594 C 347.691406 279.910156 347.808594 279.132812 347.882812 278.351562 C 347.960938 277.570312 348 276.785156 348 276 C 348 275.214844 347.960938 274.429688 347.882812 273.648438 C 347.808594 272.867188 347.691406 272.089844 347.539062 271.316406 C 347.386719 270.546875 347.195312 269.785156 346.964844 269.03125 C 346.738281 268.28125 346.472656 267.542969 346.171875 266.816406 C 345.871094 266.089844 345.535156 265.378906 345.167969 264.6875 C 344.796875 263.992188 344.390625 263.320312 343.957031 262.667969 C 343.519531 262.011719 343.050781 261.382812 342.550781 260.773438 C 342.054688 260.167969 341.527344 259.585938 340.96875 259.03125 C 340.414062 258.472656 339.832031 257.945312 339.226562 257.449219 C 338.617188 256.949219 337.988281 256.480469 337.332031 256.042969 C 336.679688 255.609375 336.007812 255.203125 335.3125 254.832031 C 334.621094 254.464844 333.910156 254.128906 333.183594 253.828125 C 332.457031 253.527344 331.71875 253.261719 330.964844 253.035156 C 330.214844 252.804688 329.453125 252.613281 328.683594 252.460938 C 327.910156 252.308594 327.132812 252.191406 326.351562 252.117188 C 325.570312 252.039062 324.785156 252 324 252 C 323.214844 252 322.429688 252.039062 321.648438 252.117188 C 320.867188 252.191406 320.089844 252.308594 319.316406 252.460938 C 318.546875 252.613281 317.785156 252.804688 317.03125 253.035156 C 316.28125 253.261719 315.542969 253.527344 314.816406 253.828125 C 314.089844 254.128906 313.378906 254.464844 312.6875 254.832031 C 311.992188 255.203125 311.320312 255.609375 310.667969 256.042969 C 310.011719 256.480469 309.382812 256.949219 308.773438 257.449219 C 308.167969 257.945312 307.585938 258.472656 307.03125 259.03125 C 306.472656 259.585938 305.945312 260.167969 305.449219 260.773438 C 304.949219 261.382812 304.480469 262.011719 304.042969 262.667969 C 303.609375 263.320312 303.203125 263.992188 302.832031 264.6875 C 302.464844 265.378906 302.128906 266.089844 301.828125 266.816406 C 301.527344 267.542969 301.261719 268.28125 301.035156 269.03125 C 300.804688 269.785156 300.613281 270.546875 300.460938 271.316406 C 300.308594 272.089844 300.191406 272.867188 300.117188 273.648438 C 300.039062 274.429688 300 275.214844 300 276 C 300 276.785156 300.039062 277.570312 300.117188 278.351562 C 300.191406 279.132812 300.308594 279.910156 300.460938 280.683594 C 300.613281 281.453125 300.804688 282.214844 301.035156 282.964844 C 301.261719 283.71875 301.527344 284.457031 301.828125 285.183594 C 302.128906 285.910156 302.464844 286.621094 302.832031 287.3125 C 303.203125 288.007812 303.609375 288.679688 304.042969 289.332031 C 304.480469 289.988281 304.949219 290.617188 305.449219 291.226562 C 305.945312 291.832031 306.472656 292.414062 307.03125 292.96875 C 307.585938 293.527344 308.167969 294.054688 308.773438 294.550781 C 309.382812 295.050781 310.011719 295.519531 310.667969 295.957031 C 311.320312 296.390625 311.992188 296.796875 312.6875 297.167969 C 313.378906 297.535156 314.089844 297.871094 314.816406 298.171875 C 315.542969 298.472656 316.28125 298.738281 317.03125 298.964844 C 317.785156 299.195312 318.546875 299.386719 319.316406 299.539062 C 320.089844 299.691406 320.867188 299.808594 321.648438 299.882812 C 322.429688 299.960938 323.214844 300 324 300 Z M 288 60 C 288 53.398438 282.601562 48 276 48 L 156 48 C 149.398438 48 144 53.398438 144 60 C 144 66.601562 149.398438 72 156 72 L 276 72 C 282.601562 72 288 66.601562 288 60 Z M 288 60 " fill-opacity="1" fill-rule="nonzero"/></svg>